<svg xmlns="http://www.w3.org/2000/svg" width="24" height="24" viewBox="0 0 24 24" fill="none">
                    <path d="M12.1719 3.2367C14.9269 3.2367 17.6269 3.4687 20.2549 3.9147C20.7879 4.0047 21.1719 4.4707 21.1719 5.0107V6.0547C21.1719 6.35017 21.1137 6.64275 21.0006 6.91574C20.8875 7.18872 20.7218 7.43676 20.5129 7.6457L15.0809 13.0777C14.8719 13.2866 14.7062 13.5347 14.5931 13.8077C14.4801 14.0806 14.4219 14.3732 14.4219 14.6687V17.5957C14.422 18.0137 14.3056 18.4234 14.0859 18.7789C13.8662 19.1345 13.5517 19.4218 13.1779 19.6087L9.92188 21.2367V14.6687C9.92188 14.3732 9.86368 14.0806 9.75061 13.8077C9.63754 13.5347 9.47181 13.2866 9.26287 13.0777L3.83087 7.6457C3.62194 7.43676 3.45621 7.18872 3.34314 6.91574C3.23007 6.64275 3.17187 6.35017 3.17188 6.0547V5.0107C3.17188 4.4707 3.55588 4.0047 4.08888 3.9147C6.75944 3.46255 9.4633 3.23575 12.1719 3.2367Z" stroke="#23282D" stroke-width="1.5" stroke-linecap="round" stroke-linejoin="round"/>
                  </svg>