<svg xmlns="http://www.w3.org/2000/svg" width="28" height="28" viewBox="0 0 28 28" fill="none">
                  <path d="M9.62508 2.91666C5.93048 2.91666 2.91675 5.93038 2.91675 9.62499V18.375C2.91675 22.0691 5.93037 25.0833 9.62508 25.0833H18.3751C22.0693 25.0833 25.0834 22.0692 25.0834 18.375V9.62499C25.0834 5.93028 22.0692 2.91666 18.3751 2.91666H9.62508ZM9.62508 4.66666H18.3751C21.1233 4.66666 23.3334 6.8762 23.3334 9.62499V18.375C23.3334 21.1231 21.1232 23.3333 18.3751 23.3333H9.62508C6.87629 23.3333 4.66675 21.1232 4.66675 18.375V9.62499C4.66675 6.8761 6.87619 4.66666 9.62508 4.66666ZM19.8334 6.99999C19.1888 6.99999 18.6667 7.52207 18.6667 8.16666C18.6667 8.81124 19.1888 9.33332 19.8334 9.33332C20.478 9.33332 21.0001 8.81124 21.0001 8.16666C21.0001 7.52207 20.478 6.99999 19.8334 6.99999ZM14.0001 8.16666C10.7889 8.16666 8.16675 10.7888 8.16675 14C8.16675 17.2111 10.7889 19.8333 14.0001 19.8333C17.2112 19.8333 19.8334 17.2111 19.8334 14C19.8334 10.7888 17.2112 8.16666 14.0001 8.16666ZM14.0001 9.91666C16.2653 9.91666 18.0834 11.7348 18.0834 14C18.0834 16.2652 16.2653 18.0833 14.0001 18.0833C11.7349 18.0833 9.91675 16.2652 9.91675 14C9.91675 11.7348 11.7349 9.91666 14.0001 9.91666Z" fill="white"/>
                </svg>