<svg width="17" height="17" viewBox="0 0 17 17" fill="none" xmlns="http://www.w3.org/2000/svg">
<path d="M10.4059 0.0356663C11.2691 0.23297 11.8303 1.19293 11.6576 2.17945L11.5812 2.612C11.4053 3.62508 11.0799 4.58883 10.625 5.46532H15.4062C16.2861 5.46532 17 6.28109 17 7.28658C17 7.98853 16.6514 8.59941 16.14 8.90295C16.502 9.23685 16.7344 9.74908 16.7344 10.322C16.7344 11.2099 16.1766 11.9498 15.4428 12.1091C15.5889 12.3861 15.6719 12.7086 15.6719 13.0539C15.6719 13.8621 15.2104 14.5489 14.5729 14.7841C14.5961 14.9093 14.6094 15.0421 14.6094 15.1787C14.6094 16.1842 13.9287 16.6395 13.0156 17H9.77832C9.14746 17 8.5332 16.7875 8.00859 16.3891L6.73027 15.414C5.84375 14.7386 5.3125 13.6003 5.3125 12.3823V10.9291V9.10785V8.16307C5.3125 7.05513 5.7541 6.0117 6.50781 5.31734L6.75352 5.09347C7.6334 4.28908 8.23438 3.15838 8.45352 1.89867L8.52988 1.46612C8.70254 0.4796 9.54258 -0.161637 10.4059 0.0356663ZM1.0625 6.0724H3.1875C3.7752 6.0724 4.25 6.61499 4.25 7.28658V15.7858C4.25 16.4574 3.7752 17 3.1875 17H1.0625C0.474805 17 0 16.4574 0 15.7858V7.28658C0 6.61499 0.474805 6.0724 1.0625 6.0724Z" fill="#AFBAFF"/>
</svg>
