<svg xmlns="http://www.w3.org/2000/svg" width="77" height="25" viewBox="0 0 77 25" fill="none">
    <g clip-path="url(#clip0_683_439)">
        <path d="M9.80946 2.73999H3.95946C3.58446 2.73999 3.20946 3.03999 3.13446 3.41499L0.809458 18.415C0.734458 18.715 0.959458 18.94 1.25946 18.94H4.03446C4.40946 18.94 4.78446 18.64 4.85946 18.265L5.45946 14.215C5.53446 13.84 5.83446 13.54 6.28446 13.54H8.15946C11.9845 13.54 14.2345 11.665 14.8345 7.98999C15.0595 6.41499 14.8345 5.13999 14.0845 4.23999C13.2595 3.26499 11.7595 2.73999 9.80946 2.73999ZM10.4845 8.21499C10.1845 10.315 8.53446 10.315 7.03446 10.315H6.13446L6.73446 6.41499C6.73446 6.18999 6.95946 6.03999 7.18446 6.03999H7.55946C8.60946 6.03999 9.58446 6.03999 10.1095 6.63999C10.4845 6.93999 10.6345 7.46499 10.4845 8.21499Z" fill="#003087"/>
        <path d="M27.2083 8.14001H24.4333C24.2083 8.14001 23.9833 8.29001 23.9833 8.51501L23.8333 9.26501L23.6083 8.96502C23.0083 8.06501 21.6583 7.76501 20.3083 7.76501C17.2333 7.76501 14.6083 10.09 14.0833 13.39C13.7833 15.04 14.1583 16.615 15.1333 17.665C15.9583 18.64 17.2333 19.09 18.6583 19.09C21.1333 19.09 22.5583 17.515 22.5583 17.515L22.4083 18.265C22.3333 18.565 22.5583 18.865 22.8583 18.865H25.4083C25.7833 18.865 26.1583 18.565 26.2333 18.19L27.7333 8.59001C27.8083 8.44001 27.5083 8.14001 27.2083 8.14001ZM23.3833 13.54C23.0833 15.115 21.8833 16.24 20.2333 16.24C19.4083 16.24 18.8083 16.015 18.3583 15.49C17.9083 14.965 17.7583 14.29 17.9083 13.54C18.1333 11.965 19.4833 10.84 21.0583 10.84C21.8833 10.84 22.4833 11.14 22.9333 11.59C23.3083 12.115 23.4583 12.79 23.3833 13.54Z" fill="#003087"/>
        <path d="M42.134 8.14001H39.359C39.059 8.14001 38.834 8.29001 38.684 8.51501L34.784 14.215L33.134 8.74001C33.059 8.36501 32.684 8.14001 32.384 8.14001H29.609C29.309 8.14001 29.009 8.44001 29.159 8.81501L32.234 17.89L29.309 21.94C29.084 22.24 29.309 22.69 29.684 22.69H32.459C32.759 22.69 32.984 22.54 33.134 22.315L42.509 8.81501C42.734 8.59001 42.509 8.14001 42.134 8.14001Z" fill="#003087"/>
        <path d="M51.4345 2.73999H45.5845C45.2095 2.73999 44.8345 3.03999 44.7595 3.41499L42.4345 18.34C42.3595 18.64 42.5845 18.865 42.8845 18.865H45.8845C46.1845 18.865 46.4095 18.64 46.4095 18.415L47.0845 14.14C47.1595 13.765 47.4595 13.465 47.9095 13.465H49.7845C53.6095 13.465 55.8595 11.59 56.4595 7.91499C56.6845 6.33999 56.4595 5.06499 55.7095 4.16499C54.8095 3.26499 53.3845 2.73999 51.4345 2.73999ZM52.1095 8.21499C51.8095 10.315 50.1595 10.315 48.6595 10.315H47.7595L48.3595 6.41499C48.3595 6.18999 48.5845 6.03999 48.8095 6.03999H49.1845C50.2345 6.03999 51.2095 6.03999 51.7345 6.63999C52.1095 6.93999 52.1845 7.46499 52.1095 8.21499Z" fill="#009CDE"/>
        <path d="M68.8333 8.14001H66.0583C65.8333 8.14001 65.6083 8.29001 65.6083 8.51501L65.4583 9.26501L65.2333 8.96502C64.6333 8.06501 63.2833 7.76501 61.9333 7.76501C58.8583 7.76501 56.2333 10.09 55.7083 13.39C55.4083 15.04 55.7833 16.615 56.7583 17.665C57.5833 18.64 58.8583 19.09 60.2833 19.09C62.7583 19.09 64.1833 17.515 64.1833 17.515L64.0333 18.265C63.9583 18.565 64.1833 18.865 64.4833 18.865H67.0333C67.4083 18.865 67.7833 18.565 67.8583 18.19L69.3583 8.59001C69.3583 8.44001 69.1333 8.14001 68.8333 8.14001ZM64.9333 13.54C64.6333 15.115 63.4333 16.24 61.7833 16.24C60.9583 16.24 60.3583 16.015 59.9083 15.49C59.4583 14.965 59.3083 14.29 59.4583 13.54C59.6833 11.965 61.0333 10.84 62.6083 10.84C63.4333 10.84 64.0333 11.14 64.4833 11.59C64.9333 12.115 65.0833 12.79 64.9333 13.54Z" fill="#009CDE"/>
        <path d="M72.1333 3.11499L69.7333 18.34C69.6583 18.64 69.8833 18.865 70.1833 18.865H72.5833C72.9583 18.865 73.3333 18.565 73.4083 18.19L75.8083 3.26499C75.8833 2.96499 75.6583 2.73999 75.3583 2.73999H72.6583C72.3583 2.73999 72.2083 2.88999 72.1333 3.11499Z" fill="#009CDE"/>
    </g>
    <defs>
        <clipPath id="clip0_683_439">
            <rect width="75.75" height="24" fill="white" transform="translate(0.630859 0.640015)"/>
        </clipPath>
    </defs>
</svg>
