<svg xmlns="http://www.w3.org/2000/svg" width="6" height="5" viewBox="0 0 6 5"
                                    fill="none">
                                    <g clip-path="url(#clip0_74_645)">
                                      <mask id="mask0_74_645" style="mask-type:luminance" maskUnits="userSpaceOnUse"
                                        x="0" y="0" width="6" height="5">
                                        <path d="M5.37023 0.5H0.217773V4.5H5.37023V0.5Z" fill="white" />
                                      </mask>
                                      <g mask="url(#mask0_74_645)">
                                        <path
                                          d="M2.6396 3.73203L4.54492 2.25288C4.22435 2.14898 3.93323 1.99717 3.68809 1.8061C3.44185 1.61575 3.24621 1.38967 3.11233 1.14072L1.20701 2.61987C1.05837 2.73526 0.983916 2.79306 0.920028 2.85666C0.844574 2.93171 0.779875 3.01292 0.727075 3.09885C0.682508 3.17165 0.649276 3.24925 0.582811 3.40404L0.231941 4.22061C0.215792 4.258 0.213396 4.29814 0.225023 4.33653C0.236649 4.37492 0.261836 4.41003 0.297754 4.43791C0.333672 4.46579 0.378896 4.48535 0.428343 4.49437C0.477789 4.5034 0.529499 4.50154 0.577659 4.489L1.6295 4.21661C1.82915 4.16501 1.92885 4.13921 2.02262 4.10462C2.13339 4.06362 2.23798 4.01342 2.33459 3.95482C2.41651 3.90522 2.49096 3.84742 2.6396 3.73203ZM5.07354 1.8425C5.26351 1.69501 5.37024 1.49499 5.37024 1.28642C5.37024 1.07784 5.26351 0.877818 5.07354 0.730336C4.88357 0.582854 4.62591 0.5 4.35724 0.5C4.08858 0.5 3.83092 0.582854 3.64095 0.730336L3.41245 0.90773L3.42223 0.929929C3.53484 1.18006 3.71911 1.40709 3.96116 1.5939C4.20899 1.78744 4.51167 1.93331 4.84504 2.01989L5.07354 1.8425Z"
                                          fill="#A7ABC3" />
                                      </g>
                                    </g>
                                    <defs>
                                      <clipPath id="clip0_74_645">
                                        <rect width="6" height="4" fill="white" transform="translate(0 0.5)" />
                                      </clipPath>
                                    </defs>
                                  </svg>