<svg width="17" height="16" viewBox="0 0 17 16" fill="none" xmlns="http://www.w3.org/2000/svg">
                    <rect x="0.332031" width="16" height="16" rx="4" fill="#F1F1F1"/>
                    <path d="M11.3369 11.7803C11.6298 12.0732 12.1046 12.0732 12.3975 11.7803C12.6904 11.4874 12.6904 11.0126 12.3975 10.7197L9.67785 8L12.3975 5.28033C12.6904 4.98744 12.6904 4.51256 12.3975 4.21967C12.1046 3.92678 11.6298 3.92678 11.3369 4.21967L8.61719 6.93934L5.89752 4.21967C5.60462 3.92678 5.12975 3.92678 4.83686 4.21967C4.54396 4.51256 4.54396 4.98744 4.83686 5.28033L7.55653 8L4.83686 10.7197C4.54396 11.0126 4.54396 11.4874 4.83686 11.7803C5.12975 12.0732 5.60462 12.0732 5.89752 11.7803L8.61719 9.06066L11.3369 11.7803Z" fill="#4A4A4A"/>
                </svg>