<svg xmlns="http://www.w3.org/2000/svg" width="166" height="160" viewBox="0 0 166 160" fill="none">
                                                    <g clip-path="url(#clip0_7029_28838)">
                                                      <path d="M84.673 159.228C128.785 159.228 164.544 123.792 164.544 80.0806C164.544 36.3689 128.785 0.933594 84.673 0.933594C40.5614 0.933594 4.80176 36.3689 4.80176 80.0806C4.80176 123.792 40.5614 159.228 84.673 159.228Z" fill="#407BFF"></path>
                                                      <path fill-rule="evenodd" clip-rule="evenodd" d="M58.6966 19.5322C58.6966 21.0197 57.4808 22.2245 55.9797 22.2245C54.4785 22.2245 53.2627 21.0197 53.2627 19.5322C53.2627 18.0446 54.4785 16.8398 55.9797 16.8398C57.4808 16.8398 58.6966 18.0446 58.6966 19.5322Z" fill="white"></path>
                                                      <path d="M162.676 49.8438L165.999 51.9931L148.839 78.0456L145.519 75.8962L162.676 49.8438Z" fill="#DE5D1D"></path>
                                                      <path d="M143.645 39.5062L139.681 39.6914L140.719 61.5077L144.683 61.3224L143.645 39.5062Z" fill="#DE5D1D"></path>
                                                      <path fill-rule="evenodd" clip-rule="evenodd" d="M32.3862 86.8171L1.08938 101.445L0 83.9738L9.35047 89.4708L11.5 76.9763L20.3674 84.3464L23.1816 74.0977L32.3862 86.8171Z" fill="#F0C82F"></path>
                                                      <path d="M131.983 133.526C134.758 140.449 131.331 148.321 124.348 151.074C117.361 153.824 109.418 150.431 106.639 143.508C103.86 136.584 107.287 128.713 114.274 125.963C121.261 123.213 129.205 126.605 131.983 133.529V133.526ZM110.196 142.107C112.193 147.087 117.909 149.529 122.934 147.55C127.963 145.57 130.424 139.906 128.426 134.927C126.429 129.943 120.713 127.502 115.688 129.484C110.663 131.463 108.198 137.127 110.196 142.107Z" fill="#91B3FF"></path>
                                                      <path fill-rule="evenodd" clip-rule="evenodd" d="M159.811 87.7704C159.811 89.258 158.595 90.4628 157.094 90.4628C155.593 90.4628 154.377 89.258 154.377 87.7704C154.377 86.2829 155.593 85.0781 157.094 85.0781C158.595 85.0781 159.811 86.2829 159.811 87.7704Z" fill="#F0C82F"></path>
                                                      <path fill-rule="evenodd" clip-rule="evenodd" d="M92.263 148.563C92.263 150.051 91.0472 151.256 89.5461 151.256C88.0449 151.256 86.8291 150.051 86.8291 148.563C86.8291 147.076 88.0449 145.871 89.5461 145.871C91.0472 145.871 92.263 147.076 92.263 148.563Z" fill="#BCCAFC"></path>
                                                      <path fill-rule="evenodd" clip-rule="evenodd" d="M66.3999 -0.000693463C67.4179 0.70612 68.4943 1.22659 69.4248 2.21292C68.0599 3.84823 67.6189 4.90202 65.638 5.78232C64.2341 6.4056 62.707 6.52769 61.2027 6.59195C59.3092 6.67548 57.5746 6.21605 55.7623 7.46582C54.0536 8.64492 53.6484 10.8746 51.7225 12.0858C49.2552 13.6376 46.5869 13.3774 44.3627 13.2681C43.2636 13.2135 42.3623 12.9468 40.9811 13.8753C40.0182 14.5211 39.4703 15.7066 38.65 16.6929C36.5815 19.1668 33.9715 20.5322 30.7715 19.7483C30.8655 18.6238 31.3 17.6022 31.488 16.5098C36.0368 16.6801 36.0789 11.6906 40.3975 9.93324C43.5619 8.64492 47.0927 10.5694 49.6896 8.89551C50.6623 8.26902 51.2394 6.91322 51.8392 6.17428C52.5784 5.26185 53.4182 4.31408 54.5918 3.71329C57.633 2.15187 61.6371 3.83537 64.4221 2.16794C65.3494 1.61213 65.6023 0.837844 66.3999 -0.00390625V-0.000693463Z" fill="#DE5D1D"></path>
                                                      <path d="M66.3037 147.067L59.0869 152.852L64.9247 160.003L72.1416 154.218L66.3037 147.067Z" fill="#DE5D1D"></path>
                                                      <path fill-rule="evenodd" clip-rule="evenodd" d="M160.871 113.361L158.475 119.054L154.698 114.151L150.921 109.249L157.094 108.458L163.267 107.668L160.871 113.361Z" fill="#BCCAFC"></path>
                                                      <path d="M125.274 25.9725L11.0479 40.1914L24.895 149.422L139.121 135.203L125.274 25.9725Z" fill="#222221"></path>
                                                      <path d="M129.885 19.5389L15.6592 33.7578L29.5063 142.989L143.732 128.77L129.885 19.5389Z" fill="#3ACBA8"></path>
                                                      <path d="M32.6805 34.082C30.0187 34.7085 28.0053 35.8876 26.475 37.8313C25.0484 39.6466 24.9544 41.4554 26.1216 42.6505C27.3082 43.8682 28.9552 43.7557 30.8033 42.1975C32.3401 40.9028 33.6694 39.3735 35.6244 38.6313C36.7981 38.1847 37.5762 37.1888 37.333 35.8298C37.0542 34.2651 35.8287 33.886 34.4605 33.8828C33.7699 33.8828 33.0728 34.0338 32.6773 34.0788L32.6805 34.082Z" fill="white"></path>
                                                      <path d="M22.2279 44.4611C20.9408 44.927 20.0168 47.0892 20.4707 48.4771C20.8143 49.5277 21.5762 49.9421 22.6332 49.5823C23.9268 49.1422 24.8055 47.0249 24.3029 45.6402C23.9333 44.625 23.22 44.1977 22.2279 44.4643V44.4611Z" fill="white"></path>
                                                      <path d="M39.353 138.232C36.7236 137.487 34.7653 136.215 33.329 134.203C31.9868 132.324 31.977 130.515 33.1993 129.371C34.4411 128.208 36.0816 128.398 37.8551 130.036C39.3271 131.399 40.585 132.986 42.5077 133.818C43.6586 134.316 44.3914 135.347 44.0866 136.697C43.7364 138.245 42.4947 138.57 41.1265 138.512C40.4359 138.483 39.7486 138.3 39.3563 138.232H39.353Z" fill="white"></path>
                                                      <path d="M80.7888 124.485L39.3926 83.933L49.4045 73.8962L76.9533 100.887L105.381 45.6719L118.064 52.0846L80.7888 124.485Z" fill="white"></path>
                                                      <path d="M138.957 5.46044L74.8526 13.4988C70.2714 14.0739 67.0324 18.2184 67.6095 22.7549L69.1658 34.9249C69.7429 39.4646 73.9286 42.6774 78.5065 42.1023L79.7224 41.9481L81.6061 56.4088L90.2822 40.6244L142.611 34.0639C147.189 33.4888 150.431 29.3443 149.854 24.8046L148.301 12.6346C147.721 8.09493 143.538 4.88214 138.96 5.45723L138.957 5.46044Z" fill="#FFD32B"></path>
                                                      <path d="M76.3598 37.0385C77.527 36.8843 78.1949 36.7976 79.08 36.6851L81.45 36.3831C86.5306 35.7309 90.1261 31.1013 89.4647 26.0701C88.7936 20.9521 84.2221 17.463 79.0573 18.1281L73.9606 18.7835C73.1565 18.8863 72.5892 19.6188 72.6929 20.4124L74.7063 35.7855C74.7549 36.1647 74.9592 36.5149 75.2672 36.7526C75.5784 36.9871 75.961 37.0899 76.3533 37.0417L76.3598 37.0385ZM77.433 33.9671L75.7957 21.4822L79.4366 21.0132C83.029 20.5505 86.0896 22.8862 86.5565 26.446C87.0072 29.8901 84.5463 33.0547 81.074 33.5013L77.433 33.9671Z" fill="#222221"></path>
                                                      <path d="M101.678 33.8058C96.5944 34.4612 91.9224 30.895 91.261 25.8574C90.5996 20.8197 94.1984 16.1901 99.2821 15.5347C104.366 14.8793 109.038 18.4455 109.699 23.4831C110.361 28.5208 106.762 33.1504 101.678 33.8058ZM99.6615 18.4166C96.1794 18.8631 93.7153 22.0342 94.1692 25.4847C94.6199 28.9352 97.8199 31.3769 101.302 30.9271C104.784 30.4806 107.248 27.3095 106.794 23.859C106.344 20.4085 103.144 17.9668 99.6615 18.4166Z" fill="#222221"></path>
                                                      <path d="M126.834 30.5691C126.406 30.6237 125.965 30.4888 125.637 30.1836L113.959 19.228L115.444 30.5723C115.548 31.3691 114.984 32.0952 114.179 32.198C113.375 32.3008 112.643 31.7386 112.539 30.945L110.522 15.5557C110.441 14.9453 110.759 14.3542 111.31 14.0746C111.861 13.7983 112.532 13.8915 112.983 14.3156L124.665 25.2712L123.18 13.9269C123.076 13.1301 123.64 12.404 124.444 12.3012C125.248 12.1984 125.981 12.7606 126.085 13.5542L128.101 28.9434C128.182 29.5539 127.865 30.145 127.314 30.4245C127.161 30.5016 127.002 30.5498 126.837 30.5691H126.834Z" fill="#222221"></path>
                                                      <path d="M143.343 20.6206C144.147 20.5178 144.711 19.7885 144.608 18.995C144.504 18.1982 143.768 17.6392 142.967 17.742L132.177 19.1299L131.545 14.3139L142.335 12.926C143.139 12.8232 143.703 12.0939 143.599 11.3003C143.496 10.5036 142.76 9.94453 141.959 10.0473L129.716 11.6216C128.912 11.7244 128.348 12.4537 128.452 13.2473L130.468 28.6365C130.572 29.4333 131.308 29.9923 132.109 29.8895L144.351 28.3152C145.156 28.2124 145.72 27.4831 145.616 26.6896C145.512 25.896 144.776 25.3338 143.975 25.4366L133.185 26.8245L132.553 22.0085L143.343 20.6206Z" fill="#222221"></path>
                                                      <path d="M138.957 5.46044L74.8526 13.4988C70.2714 14.0739 67.0324 18.2184 67.6095 22.7549L69.1658 34.9249C69.7429 39.4646 73.9286 42.6774 78.5065 42.1023L79.7224 41.9481L81.6061 56.4088L90.2822 40.6244L142.611 34.0639C147.189 33.4888 150.431 29.3443 149.854 24.8046L148.301 12.6346C147.721 8.09493 143.538 4.88214 138.96 5.45723L138.957 5.46044Z" fill="#FFD32B"></path>
                                                      <path d="M76.3598 37.0385C77.527 36.8843 78.1949 36.7976 79.08 36.6851L81.45 36.3831C86.5306 35.7309 90.1261 31.1013 89.4647 26.0701C88.7936 20.9521 84.2221 17.463 79.0573 18.1281L73.9606 18.7835C73.1565 18.8863 72.5892 19.6188 72.6929 20.4124L74.7063 35.7855C74.7549 36.1647 74.9592 36.5149 75.2672 36.7526C75.5784 36.9871 75.961 37.0899 76.3533 37.0417L76.3598 37.0385ZM77.433 33.9671L75.7957 21.4822L79.4366 21.0132C83.029 20.5505 86.0896 22.8862 86.5565 26.446C87.0072 29.8901 84.5463 33.0547 81.074 33.5013L77.433 33.9671Z" fill="#222221"></path>
                                                      <path d="M101.678 33.8058C96.5944 34.4612 91.9224 30.895 91.261 25.8574C90.5996 20.8197 94.1984 16.1901 99.2821 15.5347C104.366 14.8793 109.038 18.4455 109.699 23.4831C110.361 28.5208 106.762 33.1504 101.678 33.8058ZM99.6615 18.4166C96.1794 18.8631 93.7153 22.0342 94.1692 25.4847C94.6199 28.9352 97.8199 31.3769 101.302 30.9271C104.784 30.4806 107.248 27.3095 106.794 23.859C106.344 20.4085 103.144 17.9668 99.6615 18.4166Z" fill="#222221"></path>
                                                      <path d="M126.834 30.5691C126.406 30.6237 125.965 30.4888 125.637 30.1836L113.959 19.228L115.444 30.5723C115.548 31.3691 114.984 32.0952 114.179 32.198C113.375 32.3008 112.643 31.7386 112.539 30.945L110.522 15.5557C110.441 14.9453 110.759 14.3542 111.31 14.0746C111.861 13.7983 112.532 13.8915 112.983 14.3156L124.665 25.2712L123.18 13.9269C123.076 13.1301 123.64 12.404 124.444 12.3012C125.248 12.1984 125.981 12.7606 126.085 13.5542L128.101 28.9434C128.182 29.5539 127.865 30.145 127.314 30.4245C127.161 30.5016 127.002 30.5498 126.837 30.5691H126.834Z" fill="#222221"></path>
                                                      <path d="M143.343 20.6206C144.147 20.5178 144.711 19.7885 144.608 18.995C144.504 18.1982 143.768 17.6392 142.967 17.742L132.177 19.1299L131.545 14.3139L142.335 12.926C143.139 12.8232 143.703 12.0939 143.599 11.3003C143.496 10.5036 142.76 9.94453 141.959 10.0473L129.716 11.6216C128.912 11.7244 128.348 12.4537 128.452 13.2473L130.468 28.6365C130.572 29.4333 131.308 29.9923 132.109 29.8895L144.351 28.3152C145.156 28.2124 145.72 27.4831 145.616 26.6896C145.512 25.896 144.776 25.3338 143.975 25.4366L133.185 26.8245L132.553 22.0085L143.343 20.6206Z" fill="#222221"></path>
                                                    </g>
                                                    <defs>
                                                      <clipPath id="clip0_7029_28838">
                                                        <rect width="166" height="160" fill="white"></rect>
                                                      </clipPath>
                                                    </defs>
                                                  </svg>