<svg xmlns="http://www.w3.org/2000/svg" width="28" height="28" viewBox="0 0 28 28" fill="none">
                    <path d="M13.9999 2.33218C7.56709 2.33218 2.33325 7.56602 2.33325 13.9988C2.33325 15.9094 2.8365 17.6953 3.65259 19.2876L2.38794 23.8153C2.09338 24.8672 3.13354 25.9073 4.18579 25.6131L8.71688 24.3485C10.3078 25.1628 12.0911 25.6655 13.9999 25.6655C20.4327 25.6655 25.6666 20.4317 25.6666 13.9988C25.6666 7.56602 20.4327 2.33218 13.9999 2.33218ZM13.9999 4.08218C19.4869 4.08218 23.9166 8.51185 23.9166 13.9988C23.9166 19.4859 19.4869 23.9155 13.9999 23.9155C12.249 23.9155 10.6111 23.4602 9.18286 22.6645C8.98154 22.5523 8.74408 22.5241 8.52205 22.5859L4.21313 23.7879L5.41626 19.4813C5.47841 19.2589 5.45016 19.021 5.33765 18.8193C4.54038 17.39 4.08325 15.7515 4.08325 13.9988C4.08325 8.51185 8.51291 4.08218 13.9999 4.08218ZM10.0567 8.74999C9.87064 8.74999 9.56997 8.81979 9.31388 9.09862C9.05838 9.37629 8.33862 10.0497 8.33862 11.4206C8.33862 12.7914 9.33625 14.1152 9.47567 14.3019C9.6145 14.4868 11.4025 17.3906 14.2346 18.5071C16.5878 19.4347 17.0664 19.2499 17.5774 19.2033C18.0884 19.1578 19.2262 18.5304 19.4584 17.8794C19.6906 17.2284 19.6907 16.6715 19.6225 16.5566C19.5531 16.4405 19.367 16.3702 19.0881 16.2308C18.8099 16.0914 17.441 15.4178 17.1855 15.325C16.93 15.2323 16.7432 15.1852 16.5577 15.464C16.3722 15.7429 15.8386 16.37 15.6759 16.5555C15.5131 16.7422 15.3509 16.7655 15.072 16.6261C14.7926 16.4855 13.8961 16.1921 12.831 15.243C12.0026 14.5051 11.4454 13.5929 11.2826 13.3141C11.1205 13.0364 11.2651 12.8838 11.4045 12.7456C11.53 12.6208 11.6833 12.4207 11.8227 12.258C11.9609 12.0952 12.0068 11.9798 12.0995 11.7943C12.1923 11.6093 12.1462 11.446 12.0767 11.3066C12.0073 11.1672 11.4656 9.78887 11.2177 9.23762C11.0094 8.77445 10.79 8.76441 10.5911 8.75682C10.4289 8.75041 10.2422 8.74999 10.0567 8.74999Z" fill="white"/>
                  </svg>